<svg xmlns="http://www.w3.org/2000/svg" width="133" height="200" version="1">
  <g font-size="338.41" font-family="Bitstream Vera Sans">
    <path d="M14.25 6v101.8c9.5-8.7 20.2-13.15 32.04-13.37 7.4 0 13.7 3.08 19 9.23 4.63 5.72 3.1 11.75 3.3 18.75.2 5.57-.5 11.26-3.46 18.47-1.06 2.97-.07 7.15-3.67 10.54l-8.56 7.96C37.3 170.78 21.65 182.36 6 194V6h8.25m25.7 108.8c-2.55-2.98-5.82-4.46-9.84-4.46-5.03 0-9.2 2.86-12.32 8.6-2.33 4.44-3.5 14.94-3.5 31.48v27.36c.22.84 6.14-4.35 17.77-15.6 6.35-5.93 10.48-12.93 12.38-21 .86-3.17 1.28-6.35 1.28-9.53 0-7-1.9-12.62-5.7-16.86" style="line-height:125%"/>
    <path d="M68.6 6v101.8c9.53-8.7 20.2-13.15 32.05-13.37 7.4 0 13.75 3.08 19.03 9.23 4.66 5.72 7.1 12.1 7.3 19.08.2 5.52-1.16 11.88-4.12 19.1-1.06 2.96-3.4 6.14-6.98 9.53l-8.57 7.96c-15.6 11.45-31.3 23-46.9 34.67V6h8.25m25.7 108.8c-2.53-2.98-5.8-4.46-9.83-4.46-5.06 0-9.2 2.86-12.36 8.6-2.32 4.44-3.5 14.94-3.5 31.48v27.36c.22.84 6.15-4.35 17.78-15.6 6.35-5.93 10.47-12.93 12.38-21 .84-3.17 1.27-6.35 1.27-9.53 0-7-1.9-12.62-5.7-16.86" style="line-height:125%"/>
  </g>
</svg>
