<svg version="1.1" id="Layer_1" xmlns="http://www.w3.org/2000/svg" xmlns:xlink="http://www.w3.org/1999/xlink" x="0px" y="0px"
	 width="100%" viewBox="0 0 352 896" enable-background="new 0 0 352 896" xml:space="preserve">
<path fill="#000000" opacity="1.000000" stroke="none" 
	d="
M165.464645,897.000000 
	C154.585938,894.957336 144.020538,893.582642 134.184601,889.180603 
	C106.138908,876.629089 89.254814,855.777649 85.559120,824.787598 
	C83.480782,807.359863 86.761894,791.314087 97.116188,777.030640 
	C118.005547,748.214539 167.648621,742.512573 190.513855,784.552612 
	C207.431183,815.656921 196.991318,848.136780 165.428986,864.262207 
	C157.939285,868.088806 150.096832,870.625977 141.915833,872.299316 
	C140.666290,872.554810 139.225266,872.335510 138.232269,874.026672 
	C147.571609,878.676636 157.424133,881.648804 167.651443,882.503296 
	C202.041061,885.376404 231.744659,874.977844 255.609497,849.656677 
	C274.778687,829.317627 280.551666,805.296692 274.632843,778.079468 
	C269.091309,752.597168 263.950562,727.026917 258.783691,701.464966 
	C258.071594,697.941956 257.008881,696.956665 253.491837,698.491394 
	C233.423737,707.248718 212.212997,708.413696 190.804153,707.003601 
	C171.489868,705.731445 152.577408,701.919312 134.360397,695.253906 
	C86.640152,677.793335 48.460545,648.857483 24.839344,602.878357 
	C12.896808,579.631897 8.626740,554.640564 10.915690,528.780518 
	C13.501004,499.572266 23.131189,472.403259 36.882137,446.595825 
	C55.126331,412.355560 78.988838,382.322205 105.634712,354.373901 
	C125.425171,333.616089 146.234344,313.925964 168.347122,295.641113 
	C171.043564,293.411438 172.716202,291.322327 171.746490,287.260925 
	C165.431747,260.813049 162.261581,233.944794 162.392654,206.755341 
	C162.678360,147.486115 173.844254,91.010765 206.330536,40.244766 
	C214.535507,27.422926 224.460922,15.990703 236.049622,6.028954 
	C238.592133,3.843382 240.200760,3.424186 242.381775,6.514759 
	C267.828461,42.573490 288.698944,80.861618 298.667358,124.247841 
	C311.354218,179.465652 303.828766,231.847458 275.874939,281.298828 
	C258.343964,312.311768 234.792526,338.195526 208.268509,361.528137 
	C203.335281,365.867798 202.100983,369.785156 203.495193,376.106873 
	C209.747787,404.458038 215.524918,432.914673 221.365341,461.355469 
	C222.230545,465.568726 223.853943,466.654266 228.491760,466.211487 
	C260.860016,463.121307 290.288818,470.856842 315.630585,491.766510 
	C333.904602,506.844543 345.997681,525.989136 351.772827,549.041504 
	C351.973358,549.841980 352.354370,550.597290 352.825623,551.686829 
	C353.000000,567.687561 353.000000,583.375122 352.864166,599.865967 
	C349.949677,609.575073 346.850098,618.339783 342.264252,626.526001 
	C326.433197,654.786194 302.826202,674.721252 274.601624,689.656555 
	C271.457092,691.320557 270.396759,692.887268 271.237885,696.590698 
	C277.304962,723.303650 282.601654,750.179688 288.053314,777.024841 
	C292.552185,799.178650 290.017456,820.064392 279.064514,839.755493 
	C264.042236,866.762390 240.273727,882.423645 211.307266,891.238220 
	C200.743256,894.452881 189.809921,895.315491 179.000000,897.000000 
	C174.643097,897.000000 170.286194,897.000000 165.464645,897.000000 
M87.717567,476.149200 
	C79.454704,488.103210 72.281555,500.666901 66.802414,514.143250 
	C56.507156,539.465149 51.507278,565.531860 58.062447,592.603638 
	C68.192520,634.439270 95.094215,662.488098 132.958038,680.788452 
	C156.147629,691.996521 180.812881,696.226196 206.596634,694.912170 
	C221.400040,694.157715 235.533401,691.445068 249.175018,685.580505 
	C253.562317,683.694458 254.602112,681.535461 253.629822,676.977478 
	C242.926743,626.802734 232.299301,576.611084 221.993530,526.353821 
	C220.949173,521.260864 218.852692,520.681213 214.673096,521.458740 
	C202.406403,523.740906 190.998962,528.330444 180.442383,534.809082 
	C169.721512,541.388550 161.294922,550.271851 156.249603,562.007446 
	C146.438416,584.828552 154.831802,614.657532 175.682938,631.141418 
	C180.301056,634.792297 184.960831,638.390442 190.544144,642.748779 
	C184.884720,642.863464 180.828476,641.502930 176.786652,640.311401 
	C150.288239,632.499023 130.098419,617.374207 121.834236,590.012451 
	C114.037292,564.197571 119.944183,540.164062 134.774948,518.379211 
	C151.459641,493.871124 174.829239,478.284180 203.276962,470.404053 
	C208.134888,469.058380 209.162094,466.898956 208.179932,462.343689 
	C203.702347,441.576447 199.416534,420.767853 195.060883,399.974304 
	C193.443604,392.253571 191.823792,384.533386 190.229263,376.927979 
	C187.486755,376.972931 186.170242,378.356018 184.723221,379.414703 
	C171.808823,388.862885 159.595093,399.173889 147.648071,409.798767 
	C125.429253,429.558533 105.030975,450.980865 87.717567,476.149200 
M269.602722,176.175522 
	C276.378906,160.050385 280.468842,143.409058 279.696594,125.750458 
	C278.846344,106.306572 271.625305,89.612946 258.518127,75.338875 
	C256.570160,73.217491 254.281464,72.474541 251.456512,72.266869 
	C237.840836,71.265968 228.294052,78.313957 220.308121,88.091408 
	C205.998688,105.610970 198.409348,126.376518 192.308075,147.767807 
	C181.942200,184.110992 178.884048,221.290726 180.520630,258.883179 
	C180.853073,266.519165 181.366074,274.397705 184.127411,281.649017 
	C186.501038,282.095062 187.351257,280.395752 188.512375,279.315155 
	C193.145752,275.003021 197.819229,270.729523 202.334763,266.295959 
	C229.212189,239.906281 253.692215,211.712479 269.602722,176.175522 
M287.982971,656.507874 
	C303.397339,639.362915 313.215546,619.638855 313.507782,596.298523 
	C313.819061,571.432617 304.964600,549.917969 286.113434,533.387146 
	C271.513794,520.584656 254.292053,515.368286 233.853287,518.948853 
	C244.874191,570.894958 255.823044,622.501465 266.951874,674.956360 
	C275.242645,669.561523 281.372101,663.286255 287.982971,656.507874 
z"/>
</svg>